<svg width="135" height="48" viewBox="0 0 135 48" fill="none" xmlns="http://www.w3.org/2000/svg">
<g clip-path="url(#clip0_1915_25127)">
<path d="M74.9653 18.9724C74.5988 18.2646 74.087 17.7275 73.4361 17.3673C72.7852 17.0071 72.0269 16.8238 71.1675 16.8238C70.226 16.8238 69.3918 17.0324 68.6589 17.4558C67.9258 17.8792 67.3508 18.4795 66.9338 19.2504C66.5166 20.0276 66.3081 20.925 66.3081 21.9487C66.3081 22.9723 66.5166 23.8697 66.9338 24.6533C67.3508 25.4369 67.9258 26.0371 68.6589 26.4605C69.3918 26.8839 70.2323 27.0925 71.1675 27.0925C72.4314 27.0925 73.4614 26.7385 74.2513 26.0308C75.0411 25.3231 75.5214 24.3626 75.6984 23.1493H70.3713V21.2915H78.1944V23.1114C78.0427 24.2173 77.6509 25.2283 77.019 26.1572C76.3872 27.0861 75.5594 27.8192 74.5483 28.3752C73.5309 28.925 72.406 29.203 71.1675 29.203C69.8342 29.203 68.6146 28.8933 67.515 28.2741C66.4155 27.6548 65.5372 26.7954 64.8927 25.6896C64.2481 24.5838 63.9258 23.3389 63.9258 21.955C63.9258 20.5711 64.2481 19.3199 64.8927 18.2204C65.5372 17.1145 66.4155 16.2551 67.5277 15.6358C68.6399 15.0166 69.8531 14.707 71.1739 14.707C72.6842 14.707 74.0301 15.0798 75.2054 15.8191C76.3808 16.5585 77.2402 17.6138 77.771 18.9724H74.9716H74.9653Z" fill="white"/>
<path d="M79.7891 15.9122C79.5047 15.6279 79.3594 15.274 79.3594 14.8506C79.3594 14.4273 79.5047 14.0734 79.7891 13.7891C80.0734 13.5047 80.4274 13.3594 80.8507 13.3594C81.2741 13.3594 81.609 13.5047 81.8934 13.7891C82.1777 14.0734 82.3231 14.4273 82.3231 14.8506C82.3231 15.274 82.1777 15.6279 81.8934 15.9122C81.609 16.1966 81.2614 16.3419 80.8507 16.3419C80.4399 16.3419 80.0734 16.1966 79.7891 15.9122ZM81.9945 17.8333V29.0876H79.6691V17.8333H81.9945Z" fill="white"/>
<path d="M91.0886 18.1729C91.7647 18.5204 92.2892 18.9501 92.6684 19.4683V17.8317H95.019V29.2692C95.019 30.3056 94.8042 31.2282 94.3683 32.037C93.9322 32.8459 93.3003 33.4841 92.4788 33.9454C91.6573 34.4067 90.6715 34.6405 89.5277 34.6405C88.0049 34.6405 86.7347 34.2803 85.73 33.5662C84.7253 32.8521 84.1502 31.879 84.0175 30.6532H86.3239C86.501 31.2408 86.8801 31.7084 87.4551 32.0749C88.0365 32.4351 88.7253 32.6184 89.5277 32.6184C90.4693 32.6184 91.2276 32.334 91.8027 31.759C92.384 31.1903 92.6684 30.3562 92.6684 29.2692V27.3925C92.2703 27.9233 91.7395 28.3719 91.0634 28.7321C90.3871 29.0923 89.6226 29.2756 88.7632 29.2756C87.7837 29.2756 86.8864 29.0291 86.0775 28.5299C85.2687 28.0307 84.6305 27.3419 84.1565 26.4446C83.6889 25.5537 83.4551 24.5426 83.4551 23.4114C83.4551 22.2803 83.6889 21.2818 84.1565 20.4099C84.6242 19.5378 85.2687 18.8617 86.0775 18.3751C86.8864 17.8949 87.7837 17.6484 88.7632 17.6484C89.6352 17.6484 90.4062 17.819 91.0823 18.1666L91.0886 18.1729ZM92.1881 21.4335C91.8658 20.8648 91.4488 20.4288 90.9306 20.1255C90.4125 19.8285 89.8564 19.6768 89.2561 19.6768C88.6558 19.6768 88.0997 19.8222 87.5815 20.1129C87.0633 20.4035 86.6462 20.8332 86.3239 21.4019C86.0017 21.9643 85.8437 22.6405 85.8437 23.4114C85.8437 24.1824 86.0017 24.8712 86.3239 25.4526C86.6462 26.0402 87.0633 26.4825 87.5878 26.7921C88.1123 27.0955 88.6684 27.2534 89.2497 27.2534C89.8311 27.2534 90.4061 27.1018 90.9243 26.8048C91.4425 26.5078 91.8596 26.0654 92.1819 25.4904C92.5041 24.9091 92.6621 24.2329 92.6621 23.4557C92.6621 22.6785 92.5041 22.0086 92.1819 21.4335H92.1881Z" fill="white"/>
<path d="M99.5976 13.9688V29.0778H97.2715V13.9688H99.5976Z" fill="white"/>
<path d="M112.071 24.3277H103.47C103.539 25.225 103.874 25.9454 104.468 26.4952C105.068 27.0387 105.802 27.3105 106.674 27.3105C107.925 27.3105 108.81 26.7859 109.328 25.7369H111.836C111.496 26.7732 110.882 27.6201 109.991 28.2772C109.1 28.9407 107.995 29.2693 106.674 29.2693C105.599 29.2693 104.633 29.0291 103.786 28.5426C102.932 28.0623 102.269 27.3799 101.783 26.5016C101.302 25.6232 101.057 24.6057 101.057 23.4494C101.057 22.293 101.29 21.2756 101.757 20.3973C102.225 19.5189 102.888 18.8428 103.735 18.3625C104.588 17.8886 105.562 17.6484 106.668 17.6484C107.774 17.6484 108.677 17.8823 109.505 18.3436C110.333 18.8049 110.983 19.4557 111.445 20.2962C111.907 21.1303 112.14 22.0971 112.14 23.184C112.14 23.6073 112.115 23.9865 112.057 24.3277H112.071ZM109.72 22.4447C109.707 21.5853 109.397 20.9028 108.804 20.3846C108.203 19.8665 107.464 19.6074 106.58 19.6074C105.777 19.6074 105.088 19.8602 104.519 20.372C103.95 20.8838 103.609 21.5726 103.495 22.4447H109.726H109.72Z" fill="white"/>
<path d="M113.547 20.4099C114.014 19.5379 114.658 18.8618 115.468 18.3752C116.276 17.895 117.173 17.6484 118.153 17.6484C119.038 17.6484 119.809 17.8191 120.472 18.1666C121.13 18.5142 121.661 18.9439 122.052 19.4621V17.8255H124.402V29.0797H122.052V27.4052C121.654 27.936 121.116 28.3784 120.44 28.7322C119.758 29.0861 118.981 29.263 118.115 29.263C117.149 29.263 116.263 29.0166 115.461 28.5174C114.658 28.0182 114.02 27.3294 113.552 26.4321C113.085 25.5411 112.852 24.53 112.852 23.3988C112.852 22.2678 113.085 21.2694 113.552 20.3973L113.547 20.4099ZM121.571 21.4336C121.25 20.8649 120.832 20.4289 120.314 20.1256C119.796 19.8286 119.239 19.6769 118.639 19.6769C118.039 19.6769 117.484 19.8223 116.965 20.113C116.447 20.4036 116.03 20.8333 115.708 21.402C115.385 21.9644 115.228 22.6405 115.228 23.4115C115.228 24.1824 115.385 24.8712 115.708 25.4526C116.03 26.0403 116.447 26.4826 116.971 26.7922C117.496 27.0956 118.052 27.2535 118.634 27.2535C119.214 27.2535 119.789 27.1018 120.308 26.8049C120.826 26.5079 121.243 26.0655 121.565 25.4905C121.887 24.9091 122.045 24.233 122.045 23.4558C122.045 22.6785 121.887 22.0087 121.565 21.4336H121.571Z" fill="white"/>
<path d="M128.716 27.1829H133.822V29.0849H126.023V27.1829L131.149 19.7264H126.023V17.8242H133.822V19.7264L128.716 27.1829Z" fill="white"/>
<path d="M49.9788 17.9652H47.4448C44.4116 8.93522 35.8682 2.41391 25.8334 2.41391C14.0799 2.41391 4.38005 11.3555 3.1731 22.7868C3.09095 23.5766 3.04671 24.3854 3.04671 25.2007H0.632812C0.632812 24.3159 0.677047 23.4186 0.771834 22.534C1.4227 16.3855 4.31685 10.6982 8.92981 6.52133C13.5743 2.3128 19.5775 0 25.8334 0C36.6707 0 46.2758 6.90681 49.7323 17.1944C49.8208 17.447 49.8966 17.7061 49.9788 17.9652Z" fill="white"/>
<path d="M33.741 17.9662H29.918C28.711 17.2837 27.3145 16.892 25.8295 16.892C22.0823 16.892 18.91 19.3817 17.8737 22.794C17.64 23.5587 17.5135 24.3675 17.5135 25.208H15.0996C15.0996 24.3802 15.1945 23.5713 15.3714 22.794C16.4709 18.0357 20.7362 14.4844 25.8232 14.4844C28.9512 14.4844 31.7694 15.8304 33.7347 17.9725L33.741 17.9662Z" fill="white"/>
<path d="M39.6039 17.9604H36.7919C34.4412 14.4091 30.4033 12.0585 25.8345 12.0585C19.4143 12.0585 14.0557 16.6904 12.9183 22.7819C12.773 23.5655 12.6971 24.3681 12.6971 25.1959H10.2832C10.2832 24.3744 10.3465 23.5718 10.4728 22.7819C11.6292 15.338 18.0684 9.64453 25.8345 9.64453C31.8125 9.64453 37.0005 13.0126 39.6039 17.9541V17.9604Z" fill="white"/>
<path d="M44.8805 17.9656H42.2707C39.4839 11.6527 33.1648 7.24204 25.8284 7.24204C16.7414 7.24204 9.2091 14.0225 8.02742 22.7933C7.91999 23.5832 7.86313 24.3858 7.86313 25.2072H5.44922C5.44922 24.3921 5.49978 23.5832 5.59456 22.7933C6.78888 12.6891 15.4082 4.82812 25.8284 4.82812C34.5172 4.82812 41.9484 10.2941 44.8741 17.9656H44.8805Z" fill="white"/>
<path d="M48.6203 25.212C48.6203 26.0273 48.5761 26.8297 48.4939 27.626C48.4813 27.7334 48.4687 27.8471 48.456 27.9546C48.3739 28.6559 48.2538 29.3574 48.1085 30.0399C45.8905 40.2958 36.7467 48.0051 25.8336 48.0051C14.08 48.0051 4.38021 39.0636 3.17326 27.6323C3.09111 26.8424 3.04688 26.0336 3.04688 25.2184H5.46078C5.46078 26.0336 5.51133 26.8424 5.60612 27.6323C6.80043 37.7366 15.4197 45.5975 25.8399 45.5975C35.4133 45.5975 43.4639 38.9624 45.6377 30.0462C45.8336 29.2563 45.9789 28.4538 46.0738 27.6323C46.1685 26.8424 46.219 26.0336 46.219 25.2184V22.8044H33.7956C33.5303 21.9325 33.1259 21.1172 32.6077 20.3906H48.1148C48.2854 21.1805 48.4181 21.983 48.5003 22.8044C48.5824 23.5943 48.6267 24.4032 48.6267 25.2184L48.6203 25.212Z" fill="white"/>
<path d="M43.7996 25.207C43.7996 26.0223 43.7427 26.8311 43.6353 27.621C43.5216 28.4424 43.3573 29.2513 43.1361 30.0349C41.0256 37.6051 34.0681 43.1723 25.8344 43.1723C16.7475 43.1723 9.21511 36.3919 8.03342 27.621C7.926 26.8311 7.86914 26.0285 7.86914 25.207H10.2831C10.2831 26.0285 10.3463 26.8311 10.4726 27.621C11.629 35.0649 18.0682 40.7584 25.8344 40.7584C32.7411 40.7584 38.5926 36.2592 40.6211 30.0349C40.8739 29.2577 41.0697 28.4488 41.1961 27.621H25.8344V25.207H43.7996Z" fill="white"/>
<path d="M38.0559 30.0232C36.1285 34.8889 31.3766 38.3327 25.8347 38.3327C19.4145 38.3327 14.0559 33.7009 12.9184 27.6092C12.7731 26.8257 12.6973 26.0231 12.6973 25.1953H15.1111C15.1111 26.0231 15.2059 26.832 15.3829 27.6092C16.4824 32.3676 20.7478 35.9189 25.8347 35.9189C30.0116 35.9189 33.645 33.5176 35.4144 30.0168H38.0559V30.0232Z" fill="white"/>
<path d="M74.9653 18.9724C74.5988 18.2646 74.087 17.7275 73.4361 17.3673C72.7852 17.0071 72.0269 16.8238 71.1675 16.8238C70.226 16.8238 69.3918 17.0324 68.6589 17.4558C67.9258 17.8792 67.3508 18.4795 66.9338 19.2504C66.5166 20.0276 66.3081 20.925 66.3081 21.9487C66.3081 22.9723 66.5166 23.8697 66.9338 24.6533C67.3508 25.4369 67.9258 26.0371 68.6589 26.4605C69.3918 26.8839 70.2323 27.0925 71.1675 27.0925C72.4314 27.0925 73.4614 26.7385 74.2513 26.0308C75.0411 25.3231 75.5214 24.3626 75.6984 23.1493H70.3713V21.2915H78.1944V23.1114C78.0427 24.2173 77.6509 25.2283 77.019 26.1572C76.3872 27.0861 75.5594 27.8192 74.5483 28.3752C73.5309 28.925 72.406 29.203 71.1675 29.203C69.8342 29.203 68.6146 28.8933 67.515 28.2741C66.4155 27.6548 65.5372 26.7954 64.8927 25.6896C64.2481 24.5838 63.9258 23.3389 63.9258 21.955C63.9258 20.5711 64.2481 19.3199 64.8927 18.2204C65.5372 17.1145 66.4155 16.2551 67.5277 15.6358C68.6399 15.0166 69.8531 14.707 71.1739 14.707C72.6842 14.707 74.0301 15.0798 75.2054 15.8191C76.3808 16.5585 77.2402 17.6138 77.771 18.9724H74.9716H74.9653Z" fill="white"/>
<path d="M79.7891 15.9122C79.5047 15.6279 79.3594 15.274 79.3594 14.8506C79.3594 14.4273 79.5047 14.0734 79.7891 13.7891C80.0734 13.5047 80.4274 13.3594 80.8507 13.3594C81.2741 13.3594 81.609 13.5047 81.8934 13.7891C82.1777 14.0734 82.3231 14.4273 82.3231 14.8506C82.3231 15.274 82.1777 15.6279 81.8934 15.9122C81.609 16.1966 81.2614 16.3419 80.8507 16.3419C80.4399 16.3419 80.0734 16.1966 79.7891 15.9122ZM81.9945 17.8333V29.0876H79.6691V17.8333H81.9945Z" fill="white"/>
<path d="M91.0886 18.1729C91.7647 18.5204 92.2892 18.9501 92.6684 19.4683V17.8317H95.019V29.2692C95.019 30.3056 94.8042 31.2282 94.3683 32.037C93.9322 32.8459 93.3003 33.4841 92.4788 33.9454C91.6573 34.4067 90.6715 34.6405 89.5277 34.6405C88.0049 34.6405 86.7347 34.2803 85.73 33.5662C84.7253 32.8521 84.1502 31.879 84.0175 30.6532H86.3239C86.501 31.2408 86.8801 31.7084 87.4551 32.0749C88.0365 32.4351 88.7253 32.6184 89.5277 32.6184C90.4693 32.6184 91.2276 32.334 91.8027 31.759C92.384 31.1903 92.6684 30.3562 92.6684 29.2692V27.3925C92.2703 27.9233 91.7395 28.3719 91.0634 28.7321C90.3871 29.0923 89.6226 29.2756 88.7632 29.2756C87.7837 29.2756 86.8864 29.0291 86.0775 28.5299C85.2687 28.0307 84.6305 27.3419 84.1565 26.4446C83.6889 25.5537 83.4551 24.5426 83.4551 23.4114C83.4551 22.2803 83.6889 21.2818 84.1565 20.4099C84.6242 19.5378 85.2687 18.8617 86.0775 18.3751C86.8864 17.8949 87.7837 17.6484 88.7632 17.6484C89.6352 17.6484 90.4062 17.819 91.0823 18.1666L91.0886 18.1729ZM92.1881 21.4335C91.8658 20.8648 91.4488 20.4288 90.9306 20.1255C90.4125 19.8285 89.8564 19.6768 89.2561 19.6768C88.6558 19.6768 88.0997 19.8222 87.5815 20.1129C87.0633 20.4035 86.6462 20.8332 86.3239 21.4019C86.0017 21.9643 85.8437 22.6405 85.8437 23.4114C85.8437 24.1824 86.0017 24.8712 86.3239 25.4526C86.6462 26.0402 87.0633 26.4825 87.5878 26.7921C88.1123 27.0955 88.6684 27.2534 89.2497 27.2534C89.8311 27.2534 90.4061 27.1018 90.9243 26.8048C91.4425 26.5078 91.8596 26.0654 92.1819 25.4904C92.5041 24.9091 92.6621 24.2329 92.6621 23.4557C92.6621 22.6785 92.5041 22.0086 92.1819 21.4335H92.1881Z" fill="white"/>
<path d="M99.5976 13.9688V29.0778H97.2715V13.9688H99.5976Z" fill="white"/>
<path d="M112.071 24.3277H103.47C103.539 25.225 103.874 25.9454 104.468 26.4952C105.068 27.0387 105.802 27.3105 106.674 27.3105C107.925 27.3105 108.81 26.7859 109.328 25.7369H111.836C111.496 26.7732 110.882 27.6201 109.991 28.2772C109.1 28.9407 107.995 29.2693 106.674 29.2693C105.599 29.2693 104.633 29.0291 103.786 28.5426C102.932 28.0623 102.269 27.3799 101.783 26.5016C101.302 25.6232 101.057 24.6057 101.057 23.4494C101.057 22.293 101.29 21.2756 101.757 20.3973C102.225 19.5189 102.888 18.8428 103.735 18.3625C104.588 17.8886 105.562 17.6484 106.668 17.6484C107.774 17.6484 108.677 17.8823 109.505 18.3436C110.333 18.8049 110.983 19.4557 111.445 20.2962C111.907 21.1303 112.14 22.0971 112.14 23.184C112.14 23.6073 112.115 23.9865 112.057 24.3277H112.071ZM109.72 22.4447C109.707 21.5853 109.397 20.9028 108.804 20.3846C108.203 19.8665 107.464 19.6074 106.58 19.6074C105.777 19.6074 105.088 19.8602 104.519 20.372C103.95 20.8838 103.609 21.5726 103.495 22.4447H109.726H109.72Z" fill="white"/>
<path d="M113.547 20.4099C114.014 19.5379 114.658 18.8618 115.468 18.3752C116.276 17.895 117.173 17.6484 118.153 17.6484C119.038 17.6484 119.809 17.8191 120.472 18.1666C121.13 18.5142 121.661 18.9439 122.052 19.4621V17.8255H124.402V29.0797H122.052V27.4052C121.654 27.936 121.116 28.3784 120.44 28.7322C119.758 29.0861 118.981 29.263 118.115 29.263C117.149 29.263 116.263 29.0166 115.461 28.5174C114.658 28.0182 114.02 27.3294 113.552 26.4321C113.085 25.5411 112.852 24.53 112.852 23.3988C112.852 22.2678 113.085 21.2694 113.552 20.3973L113.547 20.4099ZM121.571 21.4336C121.25 20.8649 120.832 20.4289 120.314 20.1256C119.796 19.8286 119.239 19.6769 118.639 19.6769C118.039 19.6769 117.484 19.8223 116.965 20.113C116.447 20.4036 116.03 20.8333 115.708 21.402C115.385 21.9644 115.228 22.6405 115.228 23.4115C115.228 24.1824 115.385 24.8712 115.708 25.4526C116.03 26.0403 116.447 26.4826 116.971 26.7922C117.496 27.0956 118.052 27.2535 118.634 27.2535C119.214 27.2535 119.789 27.1018 120.308 26.8049C120.826 26.5079 121.243 26.0655 121.565 25.4905C121.887 24.9091 122.045 24.233 122.045 23.4558C122.045 22.6785 121.887 22.0087 121.565 21.4336H121.571Z" fill="white"/>
<path d="M128.716 27.1829H133.822V29.0849H126.023V27.1829L131.149 19.7264H126.023V17.8242H133.822V19.7264L128.716 27.1829Z" fill="white"/>
<path d="M49.9788 17.9652H47.4448C44.4116 8.93522 35.8682 2.41391 25.8334 2.41391C14.0799 2.41391 4.38005 11.3555 3.1731 22.7868C3.09095 23.5766 3.04671 24.3854 3.04671 25.2007H0.632812C0.632812 24.3159 0.677047 23.4186 0.771834 22.534C1.4227 16.3855 4.31685 10.6982 8.92981 6.52133C13.5743 2.3128 19.5775 0 25.8334 0C36.6707 0 46.2758 6.90681 49.7323 17.1944C49.8208 17.447 49.8966 17.7061 49.9788 17.9652Z" fill="white"/>
<path d="M33.741 17.9662H29.918C28.711 17.2837 27.3145 16.892 25.8295 16.892C22.0823 16.892 18.91 19.3817 17.8737 22.794C17.64 23.5587 17.5135 24.3675 17.5135 25.208H15.0996C15.0996 24.3802 15.1945 23.5713 15.3714 22.794C16.4709 18.0357 20.7362 14.4844 25.8232 14.4844C28.9512 14.4844 31.7694 15.8304 33.7347 17.9725L33.741 17.9662Z" fill="white"/>
<path d="M39.6039 17.9604H36.7919C34.4412 14.4091 30.4033 12.0585 25.8345 12.0585C19.4143 12.0585 14.0557 16.6904 12.9183 22.7819C12.773 23.5655 12.6971 24.3681 12.6971 25.1959H10.2832C10.2832 24.3744 10.3465 23.5718 10.4728 22.7819C11.6292 15.338 18.0684 9.64453 25.8345 9.64453C31.8125 9.64453 37.0005 13.0126 39.6039 17.9541V17.9604Z" fill="white"/>
<path d="M44.8805 17.9656H42.2707C39.4839 11.6527 33.1648 7.24204 25.8284 7.24204C16.7414 7.24204 9.2091 14.0225 8.02742 22.7933C7.91999 23.5832 7.86313 24.3858 7.86313 25.2072H5.44922C5.44922 24.3921 5.49978 23.5832 5.59456 22.7933C6.78888 12.6891 15.4082 4.82812 25.8284 4.82812C34.5172 4.82812 41.9484 10.2941 44.8741 17.9656H44.8805Z" fill="white"/>
<path d="M48.6203 25.212C48.6203 26.0273 48.5761 26.8297 48.4939 27.626C48.4813 27.7334 48.4687 27.8471 48.456 27.9546C48.3739 28.6559 48.2538 29.3574 48.1085 30.0399C45.8905 40.2958 36.7467 48.0051 25.8336 48.0051C14.08 48.0051 4.38021 39.0636 3.17326 27.6323C3.09111 26.8424 3.04688 26.0336 3.04688 25.2184H5.46078C5.46078 26.0336 5.51133 26.8424 5.60612 27.6323C6.80043 37.7366 15.4197 45.5975 25.8399 45.5975C35.4133 45.5975 43.4639 38.9624 45.6377 30.0462C45.8336 29.2563 45.9789 28.4538 46.0738 27.6323C46.1685 26.8424 46.219 26.0336 46.219 25.2184V22.8044H33.7956C33.5303 21.9325 33.1259 21.1172 32.6077 20.3906H48.1148C48.2854 21.1805 48.4181 21.983 48.5003 22.8044C48.5824 23.5943 48.6267 24.4032 48.6267 25.2184L48.6203 25.212Z" fill="white"/>
<path d="M43.7996 25.207C43.7996 26.0223 43.7427 26.8311 43.6353 27.621C43.5216 28.4424 43.3573 29.2513 43.1361 30.0349C41.0256 37.6051 34.0681 43.1723 25.8344 43.1723C16.7475 43.1723 9.21511 36.3919 8.03342 27.621C7.926 26.8311 7.86914 26.0285 7.86914 25.207H10.2831C10.2831 26.0285 10.3463 26.8311 10.4726 27.621C11.629 35.0649 18.0682 40.7584 25.8344 40.7584C32.7411 40.7584 38.5926 36.2592 40.6211 30.0349C40.8739 29.2577 41.0697 28.4488 41.1961 27.621H25.8344V25.207H43.7996Z" fill="white"/>
<path d="M38.0559 30.0232C36.1285 34.8889 31.3766 38.3327 25.8347 38.3327C19.4145 38.3327 14.0559 33.7009 12.9184 27.6092C12.7731 26.8257 12.6973 26.0231 12.6973 25.1953H15.1111C15.1111 26.0231 15.2059 26.832 15.3829 27.6092C16.4824 32.3676 20.7478 35.9189 25.8347 35.9189C30.0116 35.9189 33.645 33.5176 35.4144 30.0168H38.0559V30.0232Z" fill="white"/>
</g>
<defs>
<clipPath id="clip0_1915_25127">
<rect width="134.4" height="48" fill="white"/>
</clipPath>
</defs>
</svg>
