<svg width="89" height="32" viewBox="0 0 89 32" fill="none" xmlns="http://www.w3.org/2000/svg">
<path d="M49.5545 12.6502C49.3102 12.1784 48.969 11.8203 48.535 11.5801C48.1011 11.34 47.5956 11.2178 47.0227 11.2178C46.395 11.2178 45.8389 11.3569 45.3502 11.6392C44.8615 11.9214 44.4782 12.3216 44.2001 12.8356C43.9221 13.3537 43.7831 13.9519 43.7831 14.6344C43.7831 15.3168 43.9221 15.9151 44.2001 16.4375C44.4782 16.9599 44.8615 17.36 45.3502 17.6423C45.8389 17.9245 46.3992 18.0636 47.0227 18.0636C47.8652 18.0636 48.5519 17.8276 49.0785 17.3558C49.6051 16.884 49.9253 16.2437 50.0432 15.4348H46.4919V14.1963H51.7072V15.4095C51.6061 16.1468 51.3449 16.8208 50.9237 17.4401C50.5024 18.0594 49.9505 18.5481 49.2765 18.9188C48.5982 19.2853 47.8483 19.4706 47.0227 19.4706C46.1338 19.4706 45.3207 19.2642 44.5877 18.8514C43.8547 18.4385 43.2691 17.8656 42.8394 17.1284C42.4097 16.3912 42.1948 15.5612 42.1948 14.6386C42.1948 13.716 42.4097 12.8819 42.8394 12.1489C43.2691 11.4116 43.8547 10.8387 44.5961 10.4258C45.3375 10.013 46.1464 9.80664 47.0269 9.80664C48.0337 9.80664 48.931 10.0552 49.7146 10.548C50.4982 11.0409 51.0711 11.7445 51.425 12.6502H49.5587H49.5545Z" fill="#29AB87"/>
<path d="M52.7699 10.6072C52.5803 10.4176 52.4834 10.1817 52.4834 9.89945C52.4834 9.61721 52.5803 9.38131 52.7699 9.19174C52.9594 9.00217 53.1954 8.90527 53.4776 8.90527C53.7599 8.90527 53.9832 9.00217 54.1727 9.19174C54.3623 9.38131 54.4592 9.61721 54.4592 9.89945C54.4592 10.1817 54.3623 10.4176 54.1727 10.6072C53.9832 10.7967 53.7514 10.8936 53.4776 10.8936C53.2038 10.8936 52.9594 10.7967 52.7699 10.6072ZM54.2401 11.8879V19.3908H52.6899V11.8879H54.2401Z" fill="#29AB87"/>
<path d="M60.3053 12.1114C60.7561 12.343 61.1057 12.6295 61.3585 12.975V11.8839H62.9256V19.5089C62.9256 20.1998 62.7824 20.8149 62.4918 21.3541C62.2011 21.8934 61.7798 22.3188 61.2321 22.6264C60.6845 22.9339 60.0273 23.0898 59.2648 23.0898C58.2495 23.0898 57.4027 22.8497 56.7329 22.3736C56.0631 21.8975 55.6797 21.2488 55.5913 20.4315H57.1289C57.2469 20.8233 57.4996 21.135 57.883 21.3794C58.2706 21.6195 58.7298 21.7417 59.2648 21.7417C59.8925 21.7417 60.398 21.5521 60.7814 21.1688C61.1689 20.7896 61.3585 20.2335 61.3585 19.5089V18.2578C61.0931 18.6116 60.7393 18.9107 60.2885 19.1508C59.8377 19.391 59.328 19.5131 58.7551 19.5131C58.1021 19.5131 57.5039 19.3489 56.9646 19.0161C56.4254 18.6833 55.9999 18.2241 55.684 17.6258C55.3722 17.0319 55.2163 16.3578 55.2163 15.6037C55.2163 14.8497 55.3722 14.184 55.684 13.6027C55.9957 13.0213 56.4254 12.5706 56.9646 12.2461C57.5039 11.926 58.1021 11.7617 58.7551 11.7617C59.3364 11.7617 59.8504 11.8754 60.3011 12.1071L60.3053 12.1114ZM61.0383 14.2851C60.8235 13.906 60.5455 13.6153 60.2 13.4131C59.8546 13.2151 59.4838 13.114 59.0836 13.114C58.6834 13.114 58.3127 13.2109 57.9673 13.4047C57.6218 13.5985 57.3437 13.8849 57.1289 14.2641C56.914 14.639 56.8088 15.0898 56.8088 15.6037C56.8088 16.1177 56.914 16.5769 57.1289 16.9645C57.3437 17.3562 57.6218 17.6511 57.9714 17.8575C58.3211 18.0598 58.6918 18.165 59.0794 18.165C59.467 18.165 59.8504 18.064 60.1958 17.866C60.5412 17.668 60.8193 17.373 61.0342 16.9897C61.249 16.6022 61.3543 16.1514 61.3543 15.6332C61.3543 15.1151 61.249 14.6685 61.0342 14.2851H61.0383Z" fill="#29AB87"/>
<path d="M65.9755 9.31348V19.3862H64.4248V9.31348H65.9755Z" fill="#29AB87"/>
<path d="M74.2929 16.2185H68.5592C68.6052 16.8167 68.8286 17.297 69.2248 17.6635C69.6248 18.0258 70.1137 18.207 70.6948 18.207C71.5294 18.207 72.1188 17.8573 72.4644 17.1579H74.1368C73.9096 17.8488 73.5006 18.4134 72.9067 18.8514C72.3128 19.2938 71.5755 19.5129 70.6948 19.5129C69.9787 19.5129 69.3342 19.3528 68.7697 19.0284C68.2008 18.7082 67.7585 18.2532 67.4347 17.6677C67.114 17.0821 66.9502 16.4038 66.9502 15.633C66.9502 14.862 67.1057 14.1837 67.4174 13.5982C67.7291 13.0126 68.1713 12.5618 68.7358 12.2417C69.3048 11.9258 69.9537 11.7656 70.691 11.7656C71.4283 11.7656 72.0305 11.9215 72.5822 12.229C73.1345 12.5366 73.5678 12.9705 73.8756 13.5308C74.1835 14.0868 74.339 14.7314 74.339 15.456C74.339 15.7382 74.3224 15.991 74.284 16.2185H74.2929ZM72.7256 14.9631C72.7172 14.3902 72.5105 13.9352 72.115 13.5898C71.7144 13.2443 71.2216 13.0716 70.6321 13.0716C70.0971 13.0716 69.6376 13.2401 69.2587 13.5813C68.8792 13.9226 68.652 14.3818 68.5758 14.9631H72.73H72.7256Z" fill="#29AB87"/>
<path d="M75.2773 13.6027C75.589 13.0214 76.0184 12.5706 76.558 12.2462C77.0968 11.9261 77.6952 11.7617 78.348 11.7617C78.9381 11.7617 79.452 11.8755 79.8943 12.1072C80.3327 12.3389 80.6866 12.6253 80.9477 12.9708V11.8797H82.5144V19.3826H80.9477V18.2662C80.6821 18.6201 80.3237 18.915 79.8732 19.1509C79.4181 19.3868 78.9004 19.5048 78.3231 19.5048C77.6786 19.5048 77.0885 19.3405 76.5535 19.0077C76.0184 18.6749 75.5928 18.2157 75.2812 17.6175C74.9695 17.0235 74.814 16.3494 74.814 15.5953C74.814 14.8413 74.9695 14.1757 75.2812 13.5943L75.2773 13.6027ZM80.6271 14.2852C80.4127 13.906 80.1343 13.6154 79.7887 13.4132C79.4437 13.2152 79.0725 13.114 78.6725 13.114C78.2725 13.114 77.902 13.2109 77.5564 13.4047C77.2108 13.5985 76.933 13.885 76.718 14.2641C76.5029 14.639 76.398 15.0898 76.398 15.6038C76.398 16.1177 76.5029 16.5769 76.718 16.9645C76.933 17.3563 77.2108 17.6512 77.5602 17.8576C77.9103 18.0598 78.2808 18.1651 78.6687 18.1651C79.0559 18.1651 79.4392 18.064 79.7848 17.866C80.1304 17.668 80.4082 17.3731 80.6232 16.9898C80.8376 16.6022 80.9432 16.1514 80.9432 15.6333C80.9432 15.1151 80.8376 14.6685 80.6232 14.2852H80.6271Z" fill="#29AB87"/>
<path d="M85.3885 18.1229H88.792V19.3909H83.5933V18.1229L87.0102 13.1519H83.5933V11.8838H88.792V13.1519L85.3885 18.1229Z" fill="#29AB87"/>
<path d="M32.8973 11.9768H31.208C29.1859 5.95681 23.4903 1.60927 16.8004 1.60927C8.9647 1.60927 2.49816 7.5703 1.69353 15.1912C1.63876 15.7178 1.60926 16.257 1.60926 16.8004H0C0 16.2106 0.0294899 15.6124 0.092681 15.0227C0.526595 10.9236 2.45603 7.13216 5.53133 4.34755C8.62768 1.54187 12.6298 0 16.8004 0C24.0252 0 30.4286 4.60454 32.733 11.4629C32.792 11.6314 32.8425 11.8041 32.8973 11.9768Z" fill="#29AB87"/>
<path d="M22.0736 11.9765H19.5249C18.7202 11.5215 17.7892 11.2603 16.7993 11.2603C14.3011 11.2603 12.1863 12.9202 11.4954 15.195C11.3396 15.7048 11.2553 16.244 11.2553 16.8043H9.646C9.646 16.2525 9.70923 15.7132 9.82718 15.195C10.5602 12.0228 13.4038 9.65527 16.7951 9.65527C18.8804 9.65527 20.7592 10.5526 22.0694 11.9807L22.0736 11.9765Z" fill="#29AB87"/>
<path d="M25.9798 11.9766H24.1051C22.538 9.609 19.846 8.0419 16.8002 8.0419C12.52 8.0419 8.94762 11.1298 8.18935 15.1909C8.09246 15.7133 8.0419 16.2483 8.0419 16.8002H6.43262C6.43262 16.2525 6.47479 15.7175 6.55902 15.1909C7.32996 10.2283 11.6228 6.43262 16.8002 6.43262C20.7854 6.43262 24.2441 8.67799 25.9798 11.9723V11.9766Z" fill="#29AB87"/>
<path d="M29.4975 11.9771H27.7576C25.8998 7.76848 21.687 4.82802 16.7961 4.82802C10.7381 4.82802 5.71655 9.34832 4.92876 15.1956C4.85714 15.7221 4.81923 16.2572 4.81923 16.8048H3.20996C3.20996 16.2614 3.24367 15.7221 3.30686 15.1956C4.10307 8.45942 9.84927 3.21875 16.7961 3.21875C22.5886 3.21875 27.5428 6.86275 29.4932 11.9771H29.4975Z" fill="#29AB87"/>
<path d="M31.9912 16.8051C31.9912 17.3486 31.9617 17.8836 31.9069 18.4144C31.8985 18.486 31.8901 18.5618 31.8816 18.6334C31.8269 19.101 31.7469 19.5687 31.65 20.0237C30.1713 26.861 24.0754 32.0005 16.8 32.0005C8.96432 32.0005 2.49778 26.0395 1.69314 18.4186C1.63838 17.892 1.60889 17.3528 1.60889 16.8093H3.21815C3.21815 17.3528 3.25186 17.892 3.31505 18.4186C4.11125 25.1548 9.85744 30.3954 16.8043 30.3954C23.1865 30.3954 28.5536 25.972 30.0028 20.0279C30.1333 19.5013 30.2302 18.9662 30.2935 18.4186C30.3566 17.892 30.3903 17.3528 30.3903 16.8093V15.2H22.1081C21.9312 14.6187 21.6615 14.0752 21.3161 13.5908H31.6542C31.7679 14.1174 31.8564 14.6524 31.9111 15.2C31.9659 15.7266 31.9954 16.2659 31.9954 16.8093L31.9912 16.8051Z" fill="#29AB87"/>
<path d="M28.7774 16.8047C28.7774 17.3482 28.7395 17.8874 28.6678 18.414C28.592 18.9616 28.4825 19.5009 28.335 20.0232C26.928 25.0701 22.2897 28.7815 16.8006 28.7815C10.7427 28.7815 5.72104 24.2613 4.93325 18.414C4.86164 17.8874 4.82373 17.3523 4.82373 16.8047H6.43303C6.43303 17.3523 6.47514 17.8874 6.55937 18.414C7.33031 23.3766 11.6231 27.1722 16.8006 27.1722C21.4051 27.1722 25.3061 24.1728 26.6584 20.0232C26.8269 19.5051 26.9574 18.9658 27.0417 18.414H16.8006V16.8047H28.7774Z" fill="#29AB87"/>
<path d="M24.9482 20.0193C23.6633 23.2632 20.4953 25.5591 16.8008 25.5591C12.5206 25.5591 8.94821 22.4712 8.18994 18.4101C8.09304 17.8877 8.04248 17.3527 8.04248 16.8008H9.6517C9.6517 17.3527 9.71493 17.8919 9.83288 18.4101C10.5659 21.5823 13.4095 23.9498 16.8008 23.9498C19.5854 23.9498 22.0077 22.349 23.1872 20.0151H24.9482V20.0193Z" fill="#29AB87"/>
</svg>
